<?xml version="1.0" standalone="no"?>
<!DOCTYPE svg PUBLIC "-//W3C//DTD SVG 20010904//EN"
 "http://www.w3.org/TR/2001/REC-SVG-20010904/DTD/svg10.dtd">
<svg version="1.0" xmlns="http://www.w3.org/2000/svg"
 width="200.000000pt" height="200.000000pt" viewBox="0 0 200.000000 200.000000"
 preserveAspectRatio="xMidYMid meet">
<metadata>
Created by potrace 1.11, written by Peter Selinger 2001-2013
</metadata>
<g transform="translate(0.000000,200.000000) scale(0.100000,-0.100000)"
fill="#000000" stroke="none">
<path d="M905 1679 c-4 -6 -63 -180 -131 -387 -68 -206 -127 -378 -130 -381
-3 -3 -8 -1 -12 4 -11 15 -99 75 -110 75 -5 0 -15 7 -22 15 -7 9 -19 14 -26
11 -7 -3 -16 0 -20 6 -5 7 -2 8 7 3 12 -8 12 -6 0 8 -7 9 -19 17 -26 17 -8 0
-15 3 -17 8 -5 11 -83 62 -96 62 -24 0 -11 20 36 51 26 18 50 37 54 43 5 7 8
7 8 1 0 -7 3 -7 8 0 4 6 24 21 44 35 20 13 34 28 32 32 -3 4 1 5 9 2 8 -3 21
1 28 8 8 7 44 33 81 57 38 24 65 48 61 54 -3 6 -1 7 5 3 19 -12 60 22 60 50 0
19 -5 24 -17 20 -15 -6 -15 -5 0 6 9 8 16 28 16 50 l0 36 -56 -35 c-31 -19
-60 -41 -66 -47 -5 -7 -13 -14 -17 -15 -26 -6 -38 -15 -38 -28 0 -8 -4 -11
-10 -8 -5 3 -28 -6 -50 -21 -31 -20 -38 -30 -28 -37 9 -6 8 -7 -5 -3 -11 4
-31 -3 -50 -17 -18 -12 -39 -27 -48 -32 -50 -31 -159 -106 -172 -119 -8 -8
-17 -12 -20 -9 -3 3 -6 -22 -6 -55 l1 -59 104 -72 c58 -39 110 -71 115 -71 5
0 9 -5 9 -11 0 -6 7 -9 15 -5 8 3 14 0 12 -7 -1 -7 6 -11 15 -11 10 1 16 -1
14 -5 -3 -4 29 -28 69 -54 l74 -47 -14 -47 c-8 -27 -15 -52 -15 -56 0 -4 39
-6 86 -5 l87 3 23 75 c12 41 31 103 41 138 l18 62 164 -2 164 -3 40 -137 40
-138 92 0 92 0 -17 53 c-9 28 -15 57 -13 62 2 6 29 25 59 43 48 30 53 36 42
50 -12 15 -11 15 4 4 14 -11 23 -9 57 14 23 15 41 31 41 35 0 5 3 8 8 7 15 -4
52 23 46 34 -4 7 -3 8 4 4 6 -4 42 14 79 39 61 42 68 50 70 83 1 20 -4 43 -10
51 -9 12 -9 13 1 7 6 -4 12 -3 12 3 0 16 -89 73 -102 65 -6 -4 -8 -3 -5 4 4 5
-13 23 -38 39 -25 15 -45 31 -45 36 0 4 -6 7 -14 7 -8 0 -16 -3 -19 -7 -2 -5
-3 -3 -1 3 2 10 -139 114 -181 134 -5 3 -45 29 -88 58 l-78 53 2 -70 2 -70
136 -92 c74 -51 141 -92 148 -92 7 0 13 -4 13 -8 0 -4 24 -22 53 -40 28 -18
54 -36 57 -39 3 -4 14 -10 24 -14 17 -6 15 -9 -15 -25 -19 -11 -33 -24 -31
-31 1 -6 -2 -9 -7 -6 -11 7 -91 -43 -91 -56 0 -5 -4 -7 -9 -3 -6 3 -14 -3 -20
-12 -6 -10 -11 -14 -11 -10 0 4 -26 -10 -57 -31 -32 -21 -63 -42 -70 -45 -8
-5 -50 109 -139 378 l-127 385 -93 0 c-55 0 -96 -4 -99 -11z m155 -366 l57
-198 -115 -3 c-63 -1 -116 -1 -118 1 -2 2 16 69 40 148 24 79 49 170 56 202 7
31 15 55 18 52 3 -2 30 -93 62 -202z m-385 167 c-3 -5 -12 -10 -18 -10 -7 0
-6 4 3 10 19 12 23 12 15 0z m-48 -35 c0 -8 -4 -12 -9 -9 -5 3 -6 10 -3 15 9
13 12 11 12 -6z m697 -31 c3 -8 2 -12 -4 -9 -6 3 -10 10 -10 16 0 14 7 11 14
-7z m-779 -22 c-3 -3 -11 0 -18 7 -9 10 -8 11 6 5 10 -3 15 -9 12 -12z m80 0
c-3 -3 -11 0 -18 7 -9 10 -8 11 6 5 10 -3 15 -9 12 -12z m790 -32 c-3 -5 -12
-10 -18 -10 -7 0 -6 4 3 10 19 12 23 12 15 0z m-900 -40 c3 -6 -1 -7 -9 -4
-18 7 -21 14 -7 14 6 0 13 -4 16 -10z m975 -20 c0 -5 -2 -10 -4 -10 -3 0 -8 5
-11 10 -3 6 -1 10 4 10 6 0 11 -4 11 -10z m-1026 -29 c-2 -3 -12 3 -22 13 -16
17 -16 18 5 5 12 -7 20 -15 17 -18z m1097 2 c13 -16 12 -17 -3 -4 -17 13 -22
21 -14 21 2 0 10 -8 17 -17z m-1231 -33 c0 -5 -5 -10 -11 -10 -5 0 -7 5 -4 10
3 6 8 10 11 10 2 0 4 -4 4 -10z m1420 -40 c0 -5 -5 -10 -11 -10 -5 0 -7 5 -4
10 3 6 8 10 11 10 2 0 4 -4 4 -10z m-1420 -20 c0 -5 -4 -10 -10 -10 -5 0 -10
5 -10 10 0 6 5 10 10 10 6 0 10 -4 10 -10z m1335 -108 c-3 -3 -11 0 -18 7 -9
10 -8 11 6 5 10 -3 15 -9 12 -12z m65 12 c0 -8 -19 -13 -24 -6 -3 5 1 9 9 9 8
0 15 -2 15 -3z m-1295 -84 c-3 -5 -12 -10 -18 -10 -7 0 -6 4 3 10 19 12 23 12
15 0z"/>
</g>
</svg>
