<?xml version="1.0" standalone="no"?>
<!DOCTYPE svg PUBLIC "-//W3C//DTD SVG 20010904//EN"
 "http://www.w3.org/TR/2001/REC-SVG-20010904/DTD/svg10.dtd">
<svg version="1.0" xmlns="http://www.w3.org/2000/svg"
 width="512.000000pt" height="512.000000pt" viewBox="0 0 512.000000 512.000000"
 preserveAspectRatio="xMidYMid meet">
<metadata>
Created by potrace 1.11, written by Peter Selinger 2001-2013
</metadata>
<g transform="translate(0.000000,512.000000) scale(0.100000,-0.100000)"
fill="#000000" stroke="none">
<path d="M309 5113 c-2 -10 -2 2 6 -115 3 -54 8 -105 9 -115 2 -10 7 -58 10
-108 4 -49 9 -101 11 -115 2 -14 6 -63 10 -110 4 -47 8 -97 10 -112 2 -14 6
-68 10 -120 3 -51 8 -104 10 -118 2 -14 6 -61 10 -105 3 -44 8 -96 10 -115 2
-19 6 -64 9 -100 4 -36 8 -85 11 -110 3 -25 7 -76 10 -115 3 -38 7 -90 10
-115 2 -25 7 -76 10 -115 3 -38 8 -90 10 -115 8 -89 17 -186 20 -215 2 -16 6
-68 10 -115 3 -47 8 -103 10 -125 5 -42 10 -104 20 -220 3 -38 8 -88 10 -110
2 -22 7 -71 10 -110 3 -38 8 -92 10 -120 3 -27 7 -77 10 -110 3 -33 7 -78 9
-100 3 -22 8 -80 11 -130 4 -49 8 -100 10 -112 2 -12 6 -61 10 -110 4 -48 8
-99 10 -113 2 -14 7 -61 10 -105 3 -44 8 -96 10 -115 4 -33 7 -72 20 -225 3
-33 8 -80 10 -105 3 -25 7 -72 10 -105 7 -96 17 -207 21 -250 2 -22 6 -74 10
-115 4 -41 8 -77 10 -79 2 -3 253 -76 294 -86 8 -2 159 -45 335 -95 176 -50
327 -93 335 -95 8 -2 49 -13 90 -25 41 -11 82 -23 90 -25 8 -1 94 -26 190 -54
97 -27 200 -57 230 -65 30 -8 96 -27 145 -41 50 -14 100 -28 112 -31 12 -2 71
10 130 27 59 16 115 32 123 34 8 2 87 23 175 48 260 74 888 251 1243 350 106
30 194 56 196 58 2 2 7 40 11 84 3 44 8 98 10 120 2 22 6 74 9 115 4 41 8 91
10 110 2 19 7 71 11 115 3 44 8 98 10 120 6 58 13 140 20 220 3 39 8 90 10
115 3 25 7 77 10 115 3 39 8 86 10 105 3 19 7 67 10 105 3 39 7 90 10 115 6
62 17 194 29 345 4 44 9 96 11 115 6 47 14 136 31 350 3 47 7 87 9 90 2 3 6
55 10 115 3 61 8 117 10 125 2 8 7 51 10 95 3 44 8 96 10 115 2 19 7 71 10
115 4 44 8 96 11 115 2 19 6 64 9 100 3 36 7 88 10 115 2 28 7 82 10 120 3 39
8 86 10 105 2 19 7 73 10 120 3 47 8 96 10 110 2 14 7 63 10 110 4 47 8 101
10 120 2 19 6 62 9 95 3 33 10 110 16 170 5 61 12 137 15 170 2 33 7 92 11
131 3 39 6 80 7 90 2 19 -45 19 -2250 22 -1239 1 -2254 -1 -2254 -5z"/>
</g>
</svg>
