<svg id="Layer_1" data-name="Layer 1" xmlns="http://www.w3.org/2000/svg" viewBox="0 0 171.06 110.1"><defs><style>.cls-1,.cls-2{fill:#231f20;}.cls-1{stroke:#231f20;stroke-miterlimit:10;}</style></defs><title>asa-logo</title><path class="cls-1" d="M376.87,255l20.47-20.23v5.84l-17.25,16.59v.17L397.34,274l-1.54,4.22-18.93-18.61Z" transform="translate(-376.37 -219.2)"/><path class="cls-2" d="M431.53,279.29h2.76l1.07-1.07-16.19-47.45h-7.56l-16.24,47.8.75.74h5.48l5-15.27h17.21L429,279.29Zm-23.6-20.16,4.75-14c.94-3,1.73-5.9,2.45-8.78h.14c.72,2.81,1.44,5.69,2.52,8.86l4.75,14Z" transform="translate(-376.37 -219.2)"/><text x="-376.37" y="-219.2"></text><path class="cls-1" d="M454.14,258.94l-19.45,19.23-1-4.84,17.25-16.59v-.17L433.67,240v-5.84l20.47,20.23Z" transform="translate(-376.37 -219.2)"/><text x="-376.37" y="-219.2"></text></svg>